<svg width="23" height="22" viewBox="0 0 23 22" fill="none" xmlns="http://www.w3.org/2000/svg">
<path d="M11.8825 6.62H6.6125C4.7525 6.62 4.3325 7.55 4.1025 8.7L3.2525 12.75H15.2525L14.4025 8.7C14.1525 7.55 13.7425 6.62 11.8825 6.62Z" stroke="black" stroke-width="1.5" stroke-linecap="round" stroke-linejoin="round"/>
<path d="M3.2425 10.5H2.4925M15.9925 10.5H15.2425M4.7425 15.75H6.9925M11.4925 15.75H13.7425M18.4525 7.74C18.7325 7.09 18.6325 6.21 18.1125 5.44C17.6025 4.67 16.8225 4.24 16.1125 4.25M21.5625 8.73C21.9825 7.22 21.6825 5.37 20.6125 3.77C19.5425 2.17 17.9425 1.19 16.3825 1M16.7325 19.36C16.8125 20.24 16.1125 21 15.2125 21H13.8025C12.9925 21 12.8825 20.65 12.7325 20.23L12.5825 19.78C12.3725 19.17 12.2325 18.75 11.1525 18.75H7.3125C6.2325 18.75 6.0725 19.22 5.8825 19.78L5.7325 20.23C5.5925 20.66 5.4825 21 4.6625 21H3.2525C2.3525 21 1.6425 20.24 1.7325 19.36L2.1525 14.79C2.2625 13.66 2.4725 12.74 4.4425 12.74H14.0125C15.9825 12.74 16.1925 13.66 16.3025 14.79L16.7325 19.36Z" stroke="black" stroke-width="1.5" stroke-linecap="round" stroke-linejoin="round"/>
</svg>
