<svg width="23" height="22" viewBox="0 0 23 22" fill="none" xmlns="http://www.w3.org/2000/svg">
<path d="M14.7425 21.75H8.74249C3.31249 21.75 0.992493 19.43 0.992493 14V8C0.992493 2.57 3.31249 0.25 8.74249 0.25H14.7425C20.1725 0.25 22.4925 2.57 22.4925 8V14C22.4925 19.43 20.1725 21.75 14.7425 21.75ZM8.74249 1.75C4.13249 1.75 2.49249 3.39 2.49249 8V14C2.49249 18.61 4.13249 20.25 8.74249 20.25H14.7425C19.3525 20.25 20.9925 18.61 20.9925 14V8C20.9925 3.39 19.3525 1.75 14.7425 1.75H8.74249Z" fill="black"/>
<path d="M7.07247 14.238C6.91247 14.238 6.75247 14.188 6.61247 14.078C6.53433 14.0182 6.46872 13.9437 6.4194 13.8586C6.37007 13.7735 6.33799 13.6795 6.32499 13.582C6.31199 13.4845 6.31832 13.3854 6.34363 13.2903C6.36893 13.1953 6.41271 13.1061 6.47247 13.028L8.85247 9.938C9.14247 9.568 9.55247 9.328 10.0225 9.268C10.4825 9.208 10.9525 9.338 11.3225 9.628L13.1525 11.068C13.2225 11.128 13.2925 11.128 13.3425 11.118C13.3825 11.118 13.4525 11.098 13.5125 11.018L15.8225 8.038C15.8822 7.95961 15.957 7.89394 16.0425 7.84485C16.1279 7.79576 16.2223 7.76424 16.3201 7.75213C16.4179 7.74002 16.5172 7.74757 16.612 7.77433C16.7069 7.8011 16.7954 7.84654 16.8725 7.908C17.2025 8.158 17.2625 8.628 17.0025 8.958L14.6925 11.938C14.4025 12.308 13.9925 12.548 13.5225 12.598C13.0525 12.658 12.5925 12.528 12.2225 12.238L10.3925 10.798C10.3668 10.7755 10.3363 10.7593 10.3034 10.7506C10.2704 10.7419 10.2358 10.741 10.2025 10.748C10.1625 10.748 10.0925 10.768 10.0325 10.848L7.65247 13.938C7.52247 14.138 7.30247 14.238 7.07247 14.238Z" fill="black"/>
</svg>
