<svg width="326" height="900" viewBox="0 0 326 900" fill="none" xmlns="http://www.w3.org/2000/svg">
<path d="M326 600.74H0V750.555H326V600.74Z" fill="white"/>
<path d="M160.988 675.07L-2.41486 751.664V601.48H324.389L160.988 675.07Z" fill="#58D8F4"/>
<path d="M-2.41479 675.092H160.988V750.185L79.2864 712.639L-2.41479 675.092Z" fill="#3A4276"/>
<path d="M-2.41479 600.37H160.988V675.463L79.2864 637.916L-2.41479 600.37Z" fill="#3A4276"/>
<path d="M320.365 0H-5.63464V149.815H320.365V0Z" fill="#FF356B"/>
<path d="M157.768 0H-5.63464V75.0925H157.768V0Z" fill="#FFAC30"/>
<path d="M157.768 75.0924H-5.63464V150.185H157.768V75.0924Z" fill="#FFAC30"/>
<path d="M320.365 74.9075H157.365V149.815H320.365V74.9075Z" fill="#3A4276"/>
<path d="M160.585 133.169C230.186 133.169 284.948 106.657 284.948 74.9075C284.948 43.1576 230.186 16.6461 160.585 16.6461C90.9847 16.6461 36.2222 43.1576 36.2222 74.9075C36.2222 106.657 90.9847 133.169 160.585 133.169Z" fill="#58D8F4" stroke="white" stroke-width="30"/>
<path d="M321.17 299.63H0V450.555H321.17V299.63Z" fill="#FF356B"/>
<path d="M157.768 375.462H-5.63464V450.555H157.768V375.462Z" fill="#FFAC30"/>
<path d="M160.102 432.355C228.519 432.355 283.982 406.867 283.982 375.425C283.982 343.984 228.519 318.496 160.102 318.496C91.6852 318.496 36.2222 343.984 36.2222 375.425C36.2222 406.867 91.6852 432.355 160.102 432.355Z" fill="#58D8F4" stroke="white" stroke-width="30"/>
<path d="M156.963 299.63H321.17V451.665H156.963V299.63Z" fill="#3A4276"/>
<path d="M320.365 149.815H-5.63464V300.555H320.365V149.815Z" fill="white"/>
<path d="M-5.63464 149.815H157.768V224.908L76.0667 187.361L-5.63464 149.815Z" fill="#FFAC30"/>
<path d="M157.768 224.723H-5.63477V149.63L76.0664 187.177L157.768 224.723Z" fill="white"/>
<path d="M-5.63464 224.723H157.768L72.7985 263.771L-5.63464 299.815V224.723Z" fill="#FF356B"/>
<path d="M157.768 300.37H-5.63477L76.0664 262.823L157.768 225.277V300.37Z" fill="white"/>
<path d="M238.865 187.732L320.366 149.815V225.647H157.365L238.865 187.732Z" fill="#58D8F4"/>
<path d="M320.365 450.37H-5.63464V601.109H320.365V450.37Z" fill="white"/>
<path d="M241.28 563.194L322.781 525.277V601.11H159.78L241.28 563.194Z" fill="#FF356B"/>
<path d="M157.366 524.233L-5.63464 601.11V450.37H320.366L157.366 524.233Z" fill="#FFAC30"/>
<path d="M318.756 753.514H-2.41479V904.439H318.756V753.514Z" fill="white"/>
<path d="M-1.2074 751.295C41.3825 751.295 82.2278 759.187 112.343 773.234C142.459 787.282 159.378 806.336 159.378 826.202C159.378 846.069 142.459 865.122 112.343 879.17C82.2278 893.217 41.3825 901.11 -1.20738 901.11V871.182C24.3667 871.182 48.893 866.444 66.9766 858.007C85.0602 849.572 95.2193 838.132 95.2193 826.202C95.2193 814.272 85.0602 802.832 66.9766 794.397C48.893 785.961 24.3665 781.222 -1.2074 781.222V751.295Z" fill="#58D8F4"/>
<path d="M323.585 900C280.674 900 237.913 892.166 207.571 878.222C177.229 864.278 160.183 845.367 160.183 825.647C160.183 805.928 177.229 787.016 207.57 773.072C237.913 759.128 280.674 751.295 323.585 751.295V825.647V900Z" fill="#FF356B"/>
<path d="M320.366 300.554H157.365V224.723L238.865 262.639L320.366 300.554Z" fill="#3A4276"/>
<path d="M238.262 377.312C238.262 382.291 236.127 387.222 231.981 391.822C227.835 396.422 221.757 400.602 214.096 404.122C206.435 407.643 197.339 410.437 187.329 412.342C177.319 414.247 166.59 415.228 155.755 415.228C144.921 415.228 134.192 414.247 124.182 412.342C114.171 410.437 105.076 407.643 97.4146 404.122C89.7533 400.602 83.676 396.422 79.5295 391.822C75.3832 387.222 73.2493 382.291 73.2493 377.312H155.755H238.262Z" fill="#FF356B"/>
</svg>
