<svg width="19" height="22" viewBox="0 0 19 22" fill="none" xmlns="http://www.w3.org/2000/svg">
<path d="M9.76252 1.91003C6.45252 1.91003 3.76252 4.60003 3.76252 7.91003V10.8C3.76252 11.41 3.50252 12.34 3.19252 12.86L2.04252 14.77C1.33252 15.95 1.82252 17.26 3.12252 17.7C7.43252 19.14 12.0825 19.14 16.3925 17.7C17.6025 17.3 18.1325 15.87 17.4725 14.77L16.3225 12.86C16.0225 12.34 15.7625 11.41 15.7625 10.8V7.91003C15.7625 4.61003 13.0625 1.91003 9.76252 1.91003Z" stroke="black" stroke-width="1.5" stroke-miterlimit="10" stroke-linecap="round"/>
<path d="M11.6125 2.19994C10.4032 1.85553 9.12176 1.85553 7.91248 2.19994C8.20248 1.45994 8.92248 0.939941 9.76248 0.939941C10.6025 0.939941 11.3225 1.45994 11.6125 2.19994V2.19994Z" stroke="black" stroke-width="1.5" stroke-miterlimit="10" stroke-linecap="round" stroke-linejoin="round"/>
<path d="M12.7625 18.0601C12.7625 19.7101 11.4125 21.0601 9.76251 21.0601C8.94251 21.0601 8.18251 20.7201 7.64251 20.1801C7.08067 19.6174 6.76431 18.8552 6.76251 18.0601" stroke="black" stroke-width="1.5" stroke-miterlimit="10"/>
</svg>
