<svg width="23" height="22" viewBox="0 0 23 22" fill="none" xmlns="http://www.w3.org/2000/svg">
<path d="M14.7425 21.75H8.74249C3.31249 21.75 0.992493 19.43 0.992493 14V8C0.992493 2.57 3.31249 0.25 8.74249 0.25H13.7425C14.1525 0.25 14.4925 0.59 14.4925 1C14.4925 1.41 14.1525 1.75 13.7425 1.75H8.74249C4.13249 1.75 2.49249 3.39 2.49249 8V14C2.49249 18.61 4.13249 20.25 8.74249 20.25H14.7425C19.3525 20.25 20.9925 18.61 20.9925 14V9C20.9925 8.59 21.3325 8.25 21.7425 8.25C22.1525 8.25 22.4925 8.59 22.4925 9V14C22.4925 19.43 20.1725 21.75 14.7425 21.75Z" fill="black"/>
<path d="M21.7425 9.74804H17.7425C14.3225 9.74804 12.9925 8.41804 12.9925 4.99804V0.998036C12.9925 0.698036 13.1725 0.418036 13.4525 0.308036C13.7325 0.188036 14.0525 0.258036 14.2725 0.468036L22.2725 8.46804C22.3768 8.57311 22.4477 8.70665 22.4763 8.85189C22.5049 8.99713 22.4899 9.14758 22.4333 9.28435C22.3767 9.42112 22.2809 9.5381 22.158 9.6206C22.0351 9.7031 21.8905 9.74743 21.7425 9.74804ZM14.4925 2.80804V4.99804C14.4925 7.57804 15.1625 8.24804 17.7425 8.24804H19.9325L14.4925 2.80804Z" fill="black"/>
</svg>
