<svg width="20" height="22" viewBox="0 0 20 22" fill="none" xmlns="http://www.w3.org/2000/svg">
<path d="M8.49003 1.23L3.50003 3.1C2.35003 3.53 1.41003 4.89 1.41003 6.12V13.55C1.41003 14.73 2.19003 16.28 3.14003 16.99L7.44003 20.2C8.85003 21.26 11.17 21.26 12.58 20.2L16.88 16.99C17.83 16.28 18.61 14.73 18.61 13.55V6.12C18.61 4.89 17.67 3.53 16.52 3.1L11.53 1.23C10.68 0.919998 9.32003 0.919998 8.49003 1.23Z" stroke="black" stroke-width="1.5" stroke-linecap="round" stroke-linejoin="round"/>
<path d="M10 9.92002H9.87004C8.93004 9.89002 8.18004 9.11002 8.18004 8.16002C8.18004 7.19002 8.97004 6.40002 9.94004 6.40002C10.91 6.40002 11.7 7.19002 11.7 8.16002C11.69 9.12002 10.94 9.89002 10 9.92002ZM8.01004 12.72C7.05004 13.36 7.05004 14.41 8.01004 15.05C9.10004 15.78 10.89 15.78 11.98 15.05C12.94 14.41 12.94 13.36 11.98 12.72C10.9 11.99 9.11004 11.99 8.01004 12.72Z" stroke="black" stroke-width="1.5" stroke-linecap="round" stroke-linejoin="round"/>
</svg>
