<svg width="23" height="22" viewBox="0 0 23 22" fill="none" xmlns="http://www.w3.org/2000/svg">
<path d="M17.7425 6.912H17.6125C15.7225 6.852 14.3125 5.392 14.3125 3.592C14.3125 1.752 15.8125 0.262 17.6425 0.262C19.4725 0.262 20.9725 1.762 20.9725 3.592C20.9737 4.45666 20.6383 5.28784 20.0372 5.90943C19.4362 6.53102 18.6167 6.89419 17.7525 6.922C17.7525 6.912 17.7525 6.912 17.7425 6.912ZM17.6425 1.752C16.6325 1.752 15.8125 2.572 15.8125 3.582C15.8125 4.572 16.5825 5.372 17.5725 5.412C17.5825 5.402 17.6625 5.402 17.7525 5.412C18.226 5.38078 18.6689 5.16705 18.988 4.81582C19.307 4.46458 19.4774 4.00324 19.4631 3.52893C19.4489 3.05462 19.2511 2.60435 18.9115 2.27291C18.572 1.94147 18.117 1.75473 17.6425 1.752ZM17.7515 14.28C17.3615 14.28 16.9715 14.25 16.5815 14.18C16.4842 14.1631 16.3913 14.1272 16.3079 14.0742C16.2246 14.0213 16.1525 13.9525 16.0959 13.8717C16.0392 13.7908 15.999 13.6996 15.9777 13.6032C15.9563 13.5068 15.9542 13.4072 15.9715 13.31C15.9884 13.2127 16.0243 13.1198 16.0773 13.0364C16.1302 12.9531 16.199 12.881 16.2798 12.8244C16.3607 12.7677 16.4519 12.7275 16.5483 12.7062C16.6447 12.6849 16.7443 12.6827 16.8415 12.7C18.0715 12.91 19.3715 12.68 20.2415 12.1C20.7115 11.79 20.9615 11.4 20.9615 11.01C20.9615 10.62 20.7015 10.24 20.2415 9.93C19.3715 9.35 18.0515 9.12 16.8115 9.34C16.4015 9.42 16.0115 9.14 15.9415 8.73C15.8715 8.32 16.1415 7.93 16.5515 7.86C18.1815 7.57 19.8715 7.88 21.0715 8.68C21.9515 9.27 22.4615 10.11 22.4615 11.01C22.4615 11.9 21.9615 12.75 21.0715 13.35C20.1615 13.95 18.9815 14.28 17.7515 14.28ZM5.71249 6.91H5.69249C4.82975 6.88299 4.01135 6.52145 3.41041 5.90184C2.80946 5.28223 2.47311 4.45316 2.47249 3.59C2.47249 1.75 3.97249 0.25 5.80249 0.25C7.63249 0.25 9.13249 1.75 9.13249 3.58C9.13249 5.39 7.72249 6.85 5.92249 6.91L5.71249 6.16L5.78249 6.91H5.71249ZM5.81249 5.41C5.87249 5.41 5.92249 5.41 5.98249 5.42C6.87249 5.38 7.65249 4.58 7.65249 3.59C7.65196 3.23244 7.54669 2.88286 7.34968 2.58447C7.15267 2.28607 6.87257 2.05192 6.54396 1.91095C6.21536 1.76999 5.85266 1.72837 5.50067 1.79126C5.14868 1.85414 4.82282 2.01876 4.56335 2.26478C4.30388 2.51081 4.12217 2.82746 4.04067 3.17561C3.95917 3.52376 3.98144 3.88816 4.10474 4.22379C4.22805 4.55942 4.44697 4.85158 4.73448 5.06417C5.02198 5.27676 5.36546 5.40046 5.72249 5.42C5.73249 5.41 5.77249 5.41 5.81249 5.41ZM5.70249 14.28C4.47249 14.28 3.29249 13.95 2.38249 13.35C1.50249 12.76 0.992493 11.91 0.992493 11.01C0.992493 10.12 1.50249 9.27 2.38249 8.68C3.58249 7.88 5.27249 7.57 6.90249 7.86C7.31249 7.93 7.58249 8.32 7.51249 8.73C7.44249 9.14 7.05249 9.42 6.64249 9.34C5.40249 9.12 4.09249 9.35 3.21249 9.93C2.74249 10.24 2.49249 10.62 2.49249 11.01C2.49249 11.4 2.75249 11.79 3.21249 12.1C4.08249 12.68 5.38249 12.91 6.61249 12.7C7.02249 12.63 7.41249 12.91 7.48249 13.31C7.55249 13.72 7.28249 14.11 6.87249 14.18C6.48249 14.25 6.09249 14.28 5.70249 14.28ZM11.7425 14.38H11.6125C9.72249 14.32 8.31249 12.86 8.31249 11.06C8.31249 9.22 9.81249 7.73 11.6425 7.73C13.4725 7.73 14.9725 9.23 14.9725 11.06C14.9737 11.9247 14.6383 12.7558 14.0372 13.3774C13.4362 13.999 12.6167 14.3622 11.7525 14.39C11.7525 14.38 11.7525 14.38 11.7425 14.38ZM11.6425 9.22C10.6325 9.22 9.81249 10.04 9.81249 11.05C9.81249 12.04 10.5825 12.84 11.5725 12.88C11.5825 12.87 11.6625 12.87 11.7525 12.88C12.7225 12.83 13.4725 12.03 13.4825 11.05C13.4825 10.05 12.6625 9.22 11.6425 9.22ZM11.7435 21.759C10.5435 21.759 9.34349 21.449 8.41349 20.819C7.53349 20.229 7.02349 19.389 7.02349 18.489C7.02349 17.599 7.52349 16.739 8.41349 16.149C10.2835 14.909 13.2135 14.909 15.0735 16.149C15.9535 16.739 16.4635 17.579 16.4635 18.479C16.4635 19.369 15.9635 20.229 15.0735 20.819C14.1435 21.439 12.9435 21.759 11.7435 21.759ZM9.24349 17.409C8.77349 17.719 8.52349 18.109 8.52349 18.499C8.52349 18.889 8.78349 19.269 9.24349 19.579C10.5935 20.489 12.8835 20.489 14.2335 19.579C14.7035 19.269 14.9535 18.879 14.9535 18.489C14.9535 18.099 14.6935 17.719 14.2335 17.409C12.8935 16.499 10.6035 16.509 9.24349 17.409Z" fill="black"/>
</svg>
